<svg xmlns="http://www.w3.org/2000/svg" style="display: none;">
  <symbol id="icon-clear" viewBox="0 0 24 24">
    <path d="M17 6H22V8H20V21C20 21.5523 19.5523 22 19 22H5C4.44772 22 4 21.5523 4 21V8H2V6H7V3C7 2.44772 7.44772 2 8 2H16C16.5523 2 17 2.44772 17 3V6ZM18 8H6V20H18V8ZM9 11H11V17H9V11ZM13 11H15V17H13V11ZM9 4V6H15V4H9Z"/>
  </symbol>

  <symbol id="icon-undo" viewBox="0 0 24 24">
    <path d="M5.82843 6.99955L8.36396 9.53509L6.94975 10.9493L2 5.99955L6.94975 1.0498L8.36396 2.46402L5.82843 4.99955H13C17.4183 4.99955 21 8.58127 21 12.9996C21 17.4178 17.4183 20.9996 13 20.9996H4V18.9996H13C16.3137 18.9996 19 16.3133 19 12.9996C19 9.68584 16.3137 6.99955 13 6.99955H5.82843Z"/>
  </symbol>

  <symbol id="icon-export" viewBox="0 0 24 24">
    <path d="M4 19H20V12H22V20C22 20.5523 21.5523 21 21 21H3C2.44772 21 2 20.5523 2 20V12H4V19ZM13 9V16H11V9H6L12 3L18 9H13Z"/>
  </symbol>

  <symbol id="icon-import" viewBox="0 0 24 24">
    <path d="M13 10H18L12 16L6 10H11V3H13V10ZM4 19H20V12H22V20C22 20.5523 21.5523 21 21 21H3C2.44772 21 2 20.5523 2 20V12H4V19Z"/>
  </symbol>

  <symbol id="icon-settings" viewBox="0 0 24 24">
    <path d="M12 1L21.5 6.5V17.5L12 23L2.5 17.5V6.5L12 1ZM12 3.311L4.5 7.65311V16.3469L12 20.689L19.5 16.3469V7.65311L12 3.311ZM12 16C9.79086 16 8 14.2091 8 12C8 9.79086 9.79086 8 12 8C14.2091 8 16 9.79086 16 12C16 14.2091 14.2091 16 12 16ZM12 14C13.1046 14 14 13.1046 14 12C14 10.8954 13.1046 10 12 10C10.8954 10 10 10.8954 10 12C10 13.1046 10.8954 14 12 14Z"/>
  </symbol>

  <symbol id="icon-send" viewBox="0 0 24 24">
    <path d="M13.0001 7.82843V20H11.0001V7.82843L5.63614 13.1924L4.22192 11.7782L12.0001 4L19.7783 11.7782L18.3641 13.1924L13.0001 7.82843Z"/>
  </symbol>

  <symbol id="icon-stop" viewBox="0 0 24 24">
    <path d="M6 5H18C18.5523 5 19 5.44772 19 6V18C19 18.5523 18.5523 19 18 19H6C5.44772 19 5 18.5523 5 18V6C5 5.44772 5.44772 5 6 5Z"/>
  </symbol>

  <symbol id="icon-toggle" viewBox="0 0 24 24">
    <path d="M11.9999 13.1714L16.9497 8.22168L18.3639 9.63589L11.9999 15.9999L5.63599 9.63589L7.0502 8.22168L11.9999 13.1714Z"/>
  </symbol>
</svg>